<svg width="189" height="52" viewBox="0 0 189 52" fill="none" xmlns="http://www.w3.org/2000/svg"><g clip-path="url(#discord_svg__clip0_432_427)" fill="#5865F2"><path d="M39.998 10.721a38.34 38.34 0 00-9.741-3.074c-.42.762-.91 1.787-1.248 2.602a35.62 35.62 0 00-10.796 0c-.338-.815-.84-1.84-1.263-2.602A38.213 38.213 0 007.2 10.729C1.036 20.084-.635 29.207.201 38.2c4.088 3.066 8.051 4.93 11.947 6.148a29.862 29.862 0 002.559-4.232 25.114 25.114 0 01-4.03-1.97c.338-.25.669-.514.988-.784 7.77 3.65 16.211 3.65 23.888 0 .323.27.653.533.987.785a25.046 25.046 0 01-4.036 1.973 29.727 29.727 0 002.558 4.232c3.9-1.22 7.866-3.082 11.955-6.152.98-10.426-1.675-19.465-7.019-27.48zM15.765 32.67c-2.332 0-4.245-2.187-4.245-4.85 0-2.662 1.872-4.852 4.245-4.852s4.286 2.186 4.245 4.853c.004 2.662-1.872 4.849-4.245 4.849zm15.687 0c-2.332 0-4.245-2.187-4.245-4.85 0-2.662 1.872-4.852 4.245-4.852 2.374 0 4.286 2.186 4.245 4.853 0 2.662-1.871 4.849-4.245 4.849zM63.45 17.01H73.59c2.444 0 4.509.393 6.203 1.174 1.689.78 2.956 1.87 3.795 3.264.839 1.395 1.262 2.99 1.262 4.789 0 1.76-.438 3.356-1.314 4.784-.877 1.432-2.21 2.564-4.004 3.398-1.793.834-4.015 1.253-6.67 1.253h-9.41V17.011zm9.307 13.92c1.646 0 2.912-.423 3.796-1.265.884-.846 1.326-1.996 1.326-3.455 0-1.352-.394-2.43-1.181-3.238-.787-.807-1.98-1.215-3.573-1.215h-3.172v9.173h2.804zM100.028 35.65c-1.404-.373-2.67-.914-3.795-1.627v-4.426c.85.674 1.99 1.23 3.42 1.668 1.43.435 2.812.652 4.148.652.624 0 1.096-.084 1.415-.252.32-.167.48-.37.48-.602a.913.913 0 00-.261-.666c-.174-.18-.512-.328-1.013-.453l-3.12-.72c-1.786-.427-3.053-1.018-3.806-1.776-.754-.754-1.13-1.744-1.13-2.97 0-1.033.327-1.928.988-2.694.657-.766 1.593-1.356 2.808-1.771 1.215-.42 2.633-.629 4.263-.629 1.456 0 2.789.16 4.004.48 1.214.32 2.217.728 3.016 1.227v4.186c-.818-.499-1.754-.891-2.823-1.188a12.337 12.337 0 00-3.291-.438c-1.63 0-2.443.285-2.443.853 0 .267.126.465.379.598.252.133.716.27 1.389.415l2.599.48c1.698.301 2.964.83 3.795 1.585.833.754 1.248 1.87 1.248 3.348 0 1.619-.686 2.903-2.064 3.855-1.378.952-3.332 1.429-5.865 1.429a16.996 16.996 0 01-4.341-.564zM118.434 35.09c-1.488-.747-2.614-1.76-3.364-3.04s-1.129-2.72-1.129-4.32.39-3.032 1.17-4.293c.78-1.26 1.923-2.251 3.431-2.971 1.508-.72 3.309-1.078 5.408-1.078 2.599 0 4.757.56 6.473 1.68v4.88a8.019 8.019 0 00-2.117-1.04 8.19 8.19 0 00-2.589-.4c-1.611 0-2.87.3-3.78.906-.91.606-1.367 1.394-1.367 2.373 0 .96.442 1.745 1.326 2.362.884.613 2.165.922 3.847.922.866 0 1.72-.13 2.563-.385.839-.26 1.564-.575 2.169-.949v4.72c-1.905 1.173-4.115 1.76-6.63 1.76-2.116-.008-3.921-.381-5.411-1.128zM136.907 35.09c-1.5-.747-2.644-1.768-3.432-3.067-.787-1.299-1.184-2.746-1.184-4.346s.393-3.028 1.184-4.282c.791-1.253 1.928-2.236 3.421-2.948 1.489-.712 3.268-1.067 5.329-1.067 2.062 0 3.84.355 5.33 1.067 1.489.712 2.626 1.688 3.406 2.933.779 1.246 1.169 2.674 1.169 4.293 0 1.6-.39 3.048-1.169 4.346-.78 1.3-1.921 2.32-3.421 3.067-1.501.747-3.272 1.12-5.318 1.12-2.047 0-3.818-.37-5.315-1.116zm7.899-4.731c.632-.648.951-1.505.951-2.572 0-1.066-.316-1.916-.951-2.544-.631-.633-1.493-.949-2.584-.949-1.111 0-1.98.316-2.615.949-.631.632-.947 1.478-.947 2.544 0 1.067.316 1.924.947 2.572.632.647 1.504.975 2.615.975 1.091-.004 1.953-.328 2.584-.975zM167.75 20.37v5.76c-.66-.445-1.515-.666-2.573-.666-1.386 0-2.455.43-3.198 1.291-.746.861-1.118 2.202-1.118 4.015v4.906h-6.369V20.078h6.24v4.96c.345-1.814.906-3.151 1.678-4.016.769-.86 1.764-1.291 2.975-1.291.917 0 1.705.213 2.365.64zM188.912 16.477v19.2h-6.37v-3.494c-.538 1.314-1.355 2.316-2.454 3.002-1.1.682-2.459 1.024-4.071 1.024-1.441 0-2.696-.358-3.769-1.078-1.074-.72-1.901-1.706-2.485-2.96-.579-1.253-.873-2.67-.873-4.254-.018-1.634.29-3.101.925-4.4.632-1.299 1.526-2.312 2.678-3.04 1.151-.727 2.466-1.093 3.94-1.093 3.035 0 5.07 1.352 6.109 4.053v-6.96h6.37zm-7.32 13.775c.65-.648.973-1.49.973-2.518 0-.994-.316-1.806-.947-2.427-.632-.62-1.497-.933-2.585-.933-1.073 0-1.931.316-2.574.949-.642.632-.961 1.45-.961 2.464s.319 1.84.961 2.48c.643.64 1.49.96 2.548.96 1.073-.004 1.935-.328 2.585-.975zM90.216 21.738c1.754 0 3.176-1.31 3.176-2.925 0-1.616-1.422-2.926-3.176-2.926-1.754 0-3.175 1.31-3.175 2.926 0 1.615 1.421 2.925 3.175 2.925zM87.038 23.753c1.946.861 4.36.9 6.35 0V35.76h-6.35V23.753z"/></g><defs><clipPath id="discord_svg__clip0_432_427"><path fill="#fff" d="M0 0h189v52H0z"/></clipPath></defs></svg>